<?xml version="1.0" encoding="UTF-8" standalone="no"?>
<!-- Uploaded to: SVG Repo, www.svgrepo.com, Generator: SVG Repo Mixer Tools -->

<svg
   width="800px"
   height="800px"
   viewBox="0 0 24 24"
   fill="none"
   version="1.1"
   id="svg8"
   sodipodi:docname="telefono.svg"
   inkscape:version="1.2.2 (732a01da63, 2022-12-09)"
   xmlns:inkscape="http://www.inkscape.org/namespaces/inkscape"
   xmlns:sodipodi="http://sodipodi.sourceforge.net/DTD/sodipodi-0.dtd"
   xmlns="http://www.w3.org/2000/svg"
   xmlns:svg="http://www.w3.org/2000/svg">
  <defs
     id="defs12" />
  <sodipodi:namedview
     id="namedview10"
     pagecolor="#ffffff"
     bordercolor="#000000"
     borderopacity="0.25"
     inkscape:showpageshadow="2"
     inkscape:pageopacity="0.0"
     inkscape:pagecheckerboard="0"
     inkscape:deskcolor="#d1d1d1"
     showgrid="false"
     inkscape:zoom="1.28"
     inkscape:cx="503.51563"
     inkscape:cy="280.07813"
     inkscape:window-width="1920"
     inkscape:window-height="991"
     inkscape:window-x="1991"
     inkscape:window-y="-9"
     inkscape:window-maximized="1"
     inkscape:current-layer="svg8" />
  <rect
     style="fill:#ffffff;fill-opacity:1;stroke:#000000;stroke-width:0"
     id="rect966"
     width="21.281248"
     height="12.023429"
     x="5.3517294e-07"
     y="1.3481897e-06"
     rx="0.0022108452"
     ry="0.002210845"
     inkscape:export-filename="telefono.png"
     inkscape:export-xdpi="267.73801"
     inkscape:export-ydpi="267.73801" />
  <path
     d="M 1.2172138,0.3565347 H 20.107535 c 0.141636,0 0.277471,0.056265 0.377623,0.1564166 0.100152,0.1001517 0.156417,0.2359866 0.156417,0.37762261 V 11.049096 c 0,0.141635 -0.05626,0.27747 -0.156417,0.377622 -0.100152,0.100153 -0.235987,0.156417 -0.377623,0.156417 H 1.2172138 c -0.141636,0 -0.277471,-0.05626 -0.3776226,-0.156417 C 0.7394388,11.326566 0.6831741,11.190731 0.6831741,11.049096 V 0.89057391 C 0.6831741,0.7489379 0.7394391,0.613103 0.8395912,0.5129513 0.9397428,0.4127994 1.0755778,0.3565347 1.2172138,0.3565347 Z"
     id="path2"
     style="fill:#ffffff;fill-opacity:1;stroke:#000000;stroke-width:0.467775;stroke-dasharray:none;stroke-opacity:1" />
  <path
     d="m 19.005244,0.1195611 h 1.334779 c 0.147398,0 0.288758,0.058627 0.392981,0.1629822 0.104225,0.1043559 0.162779,0.2458924 0.162779,0.3934737 v 10.584938 c 0,0.147581 -0.05855,0.289117 -0.162779,0.393472 -0.104223,0.104356 -0.245584,0.162982 -0.392981,0.162982 h -1.334779 c -0.147397,0 -0.288757,-0.05863 -0.392982,-0.162982 -0.104226,-0.104355 -0.162779,-0.245891 -0.162779,-0.393472 V 0.676017 c 0,-0.1475813 0.05855,-0.2891178 0.162779,-0.3934737 0.104225,-0.1043556 0.245585,-0.1629822 0.392982,-0.1629822 z"
     id="path6"
     style="fill:#000000;fill-opacity:1;stroke-width:0.00764947"
     inkscape:export-filename="path6.jpg"
     inkscape:export-xdpi="267.73801"
     inkscape:export-ydpi="267.73801" />
  <path
     d="m 19.676376,4.961969 c -0.518238,0 -0.938354,0.420115 -0.938354,0.938354 0,0.518238 0.420116,0.938353 0.938354,0.938353 0.518239,0 0.938356,-0.420115 0.938356,-0.938353 0,-0.518239 -0.420117,-0.938354 -0.938356,-0.938354 z"
     id="path4"
     style="fill:#d9d9d9;fill-opacity:1;stroke-width:0.00586471" />
</svg>
