<?xml version="1.0" encoding="UTF-8" standalone="no"?>
<!-- Uploaded to: SVG Repo, www.svgrepo.com, Generator: SVG Repo Mixer Tools -->

<svg
   width="800px"
   height="800px"
   viewBox="0 0 24 24"
   fill="none"
   version="1.1"
   id="svg8"
   sodipodi:docname="telefono.svg"
   inkscape:version="1.2.2 (732a01da63, 2022-12-09)"
   xmlns:inkscape="http://www.inkscape.org/namespaces/inkscape"
   xmlns:sodipodi="http://sodipodi.sourceforge.net/DTD/sodipodi-0.dtd"
   xmlns="http://www.w3.org/2000/svg"
   xmlns:svg="http://www.w3.org/2000/svg">
  <defs
     id="defs12" />
  <sodipodi:namedview
     id="namedview10"
     pagecolor="#ffffff"
     bordercolor="#000000"
     borderopacity="0.25"
     inkscape:showpageshadow="2"
     inkscape:pageopacity="0.0"
     inkscape:pagecheckerboard="0"
     inkscape:deskcolor="#d1d1d1"
     showgrid="false"
     inkscape:zoom="0.90509668"
     inkscape:cx="359.63009"
     inkscape:cy="339.74271"
     inkscape:window-width="1920"
     inkscape:window-height="991"
     inkscape:window-x="1991"
     inkscape:window-y="-9"
     inkscape:window-maximized="1"
     inkscape:current-layer="svg8" />
  <rect
     style="fill:#ffffff;fill-opacity:1;stroke:#000000;stroke-width:0;stroke-opacity:0.99791229"
     id="rect966"
     width="21.281248"
     height="11.972411"
     x="5.3517294e-07"
     y="1.3424691e-06"
     rx="0.0022108452"
     ry="0.002210845"
     inkscape:export-filename="telefono.png"
     inkscape:export-xdpi="259.83435"
     inkscape:export-ydpi="259.83435" />
  <path
     d="M 1.2172138,0.3565347 H 20.107535 c 0.141636,0 0.277471,0.056265 0.377623,0.1564166 0.100152,0.1001517 0.156417,0.2359866 0.156417,0.37762261 V 11.049096 c 0,0.141635 -0.05626,0.27747 -0.156417,0.377622 -0.100152,0.100153 -0.235987,0.156417 -0.377623,0.156417 H 1.2172138 c -0.141636,0 -0.277471,-0.05626 -0.3776226,-0.156417 C 0.7394388,11.326566 0.6831741,11.190731 0.6831741,11.049096 V 0.89057391 C 0.6831741,0.7489379 0.7394391,0.613103 0.8395912,0.5129513 0.9397428,0.4127994 1.0755778,0.3565347 1.2172138,0.3565347 Z"
     id="path2"
     style="fill:#ffffff;fill-opacity:1;stroke:#000000;stroke-width:0.46776;stroke-dasharray:none;stroke-opacity:1"
     inkscape:export-filename="telefono.png"
     inkscape:export-xdpi="259.83435"
     inkscape:export-ydpi="259.83435" />
</svg>
