<?xml version="1.0" encoding="UTF-8" standalone="no"?>
<!-- Uploaded to: SVG Repo, www.svgrepo.com, Generator: SVG Repo Mixer Tools -->

<svg
   width="800px"
   height="800px"
   viewBox="0 0 24 24"
   fill="none"
   version="1.1"
   id="svg8"
   sodipodi:docname="circle-heat-svgrepo-com.svg"
   inkscape:version="1.2.2 (732a01da63, 2022-12-09)"
   xmlns:inkscape="http://www.inkscape.org/namespaces/inkscape"
   xmlns:sodipodi="http://sodipodi.sourceforge.net/DTD/sodipodi-0.dtd"
   xmlns="http://www.w3.org/2000/svg"
   xmlns:svg="http://www.w3.org/2000/svg">
  <defs
     id="defs12" />
  <sodipodi:namedview
     id="namedview10"
     pagecolor="#ffffff"
     bordercolor="#000000"
     borderopacity="0.25"
     inkscape:showpageshadow="2"
     inkscape:pageopacity="0.0"
     inkscape:pagecheckerboard="0"
     inkscape:deskcolor="#d1d1d1"
     showgrid="false"
     inkscape:zoom="1.28"
     inkscape:cx="403.51562"
     inkscape:cy="376.17188"
     inkscape:window-width="1920"
     inkscape:window-height="991"
     inkscape:window-x="1991"
     inkscape:window-y="-9"
     inkscape:window-maximized="1"
     inkscape:current-layer="svg8" />
  <rect
     style="fill:#ffffff;stroke:#ffffff;stroke-width:0"
     id="rect296"
     width="21.28125"
     height="12.023437"
     x="0.84375"
     y="8.6953125"
     ry="0.2268573"
     inkscape:export-filename=".\rect296.png"
     inkscape:export-xdpi="259.82999"
     inkscape:export-ydpi="259.82999" />
  <path
     d="M 2.0609633,9.0518467 H 20.951285 c 0.141636,0 0.277471,0.056265 0.377623,0.1564166 0.100152,0.1001517 0.156417,0.2359866 0.156417,0.3776226 V 19.744408 c 0,0.141635 -0.05626,0.27747 -0.156417,0.377622 -0.100152,0.100153 -0.235987,0.156417 -0.377623,0.156417 H 2.0609633 c -0.141636,0 -0.277471,-0.05626 -0.3776226,-0.156417 C 1.5831883,20.021878 1.5269236,19.886043 1.5269236,19.744408 V 9.5858859 c 0,-0.141636 0.056265,-0.2774709 0.1564171,-0.3776226 C 1.7834923,9.1081114 1.9193273,9.0518467 2.0609633,9.0518467 Z"
     id="path2"
     style="fill:#ffffff;fill-opacity:1;stroke:#000000;stroke-width:0.467775;stroke-dasharray:none;stroke-opacity:1" />
  <path
     d="m 19.848994,8.8148731 h 1.334779 c 0.147397,0 0.288757,0.058627 0.392981,0.1629822 0.104225,0.1043559 0.162779,0.2458924 0.162779,0.3934737 v 10.584938 c 0,0.147581 -0.05855,0.289117 -0.162779,0.393472 -0.104224,0.104356 -0.245584,0.162982 -0.392981,0.162982 h -1.334779 c -0.147397,0 -0.288757,-0.05863 -0.392982,-0.162982 -0.104226,-0.104355 -0.162779,-0.245891 -0.162779,-0.393472 V 9.371329 c 0,-0.1475813 0.05855,-0.2891178 0.162779,-0.3934737 0.104225,-0.1043556 0.245585,-0.1629822 0.392982,-0.1629822 z"
     id="path6"
     style="fill:#000000;fill-opacity:1;stroke-width:0.00764947"
     inkscape:export-filename="path6.jpg"
     inkscape:export-xdpi="267.73801"
     inkscape:export-ydpi="267.73801" />
  <path
     d="m 20.520126,13.657281 c -0.518238,0 -0.938354,0.420115 -0.938354,0.938354 0,0.518238 0.420116,0.938353 0.938354,0.938353 0.518239,0 0.938355,-0.420115 0.938355,-0.938353 0,-0.518239 -0.420116,-0.938354 -0.938355,-0.938354 z"
     id="path4"
     style="fill:#d9d9d9;fill-opacity:1;stroke-width:0.00586471" />
  <ellipse
     style="fill:#ffffff;stroke:#ffffff;stroke-width:0"
     id="path1010"
     cx="3.3398435"
     cy="2.8359375"
     rx="0.62109375"
     ry="1.1484375" />
</svg>
